<?xml version="1.0" encoding="utf-8"?>
<!-- Generator: Adobe Illustrator 15.1.0, SVG Export Plug-In . SVG Version: 6.00 Build 0)  -->
<!DOCTYPE svg PUBLIC "-//W3C//DTD SVG 1.1//EN" "http://www.w3.org/Graphics/SVG/1.1/DTD/svg11.dtd">
<svg version="1.1" xmlns="http://www.w3.org/2000/svg" xmlns:xlink="http://www.w3.org/1999/xlink" x="0px" y="0px" width="128px"
	 height="128px" viewBox="0 0 128 128" enable-background="new 0 0 128 128" xml:space="preserve">
<g id="Layer_1">
	<path fill="#FFCC33" d="M32.68,39.237L42.824,70.71c6.586,20.438,27.747,29.857,32.058,28.466
		c4.313-1.387,15.993-21.389,9.406-41.829L74.147,25.875L32.68,39.237z"/>
	<polygon fill="#FFCC33" points="82.277,107.352 75.595,86.611 66.969,89.39 73.653,110.134 64.213,113.178 65.982,118.677 
		93.493,109.813 91.718,104.312 	"/>
	<g>
		<g>
			<path fill="#FFCC33" d="M26.921,90.114c-2.802-0.078-5.419-0.62-7.85-1.616c-2.432-0.995-4.487-2.35-6.163-4.061
				c-1.678-1.708-2.809-3.629-3.396-5.761l7.893-2.103c0.307,1.302,1.289,2.453,2.943,3.449c1.863,1.217,4.132,1.866,6.806,1.942
				c1.897,0.055,3.631-0.198,5.201-0.758c1.569-0.559,2.809-1.301,3.721-2.224c0.91-0.923,1.38-1.86,1.407-2.809
				c0.037-1.294-0.64-2.52-2.031-3.684c-1.392-1.16-3.139-1.944-5.241-2.348c-0.771-0.195-1.446-0.346-2.026-0.449
				c-0.579-0.102-0.956-0.178-1.125-0.227c-2.061-0.404-3.282-0.676-3.667-0.815c-2.445-0.544-4.62-1.47-6.523-2.776
				c-1.905-1.305-3.381-2.87-4.429-4.69c-1.05-1.82-1.544-3.744-1.486-5.771c0.069-2.457,0.888-4.677,2.456-6.661
				c1.567-1.983,3.662-3.531,6.283-4.643s5.483-1.623,8.588-1.535c3.837,0.11,7.229,1.081,10.177,2.913
				c2.946,1.833,4.896,4.208,5.849,7.125l-7.713,2.563c-0.4-1.09-1.374-2.088-2.923-2.998c-1.55-0.906-3.424-1.392-5.622-1.455
				c-2.2-0.063-4.229,0.376-6.09,1.315c-1.862,0.939-2.813,2.142-2.855,3.607c-0.028,0.992,0.504,1.968,1.599,2.926
				c1.095,0.959,2.479,1.636,4.149,2.029l0.066,0.001l0.384,0.141l3.281,0.741c0.259,0.007,1.352,0.233,3.282,0.676
				c2.746,0.554,5.167,1.531,7.263,2.927c2.097,1.398,3.719,3.084,4.872,5.059c1.152,1.975,1.697,4.063,1.634,6.263
				c-0.075,2.629-0.953,4.999-2.632,7.108c-1.678,2.11-3.938,3.761-6.776,4.952C33.386,89.662,30.286,90.211,26.921,90.114z"/>
		</g>
	</g>
	<g>
		<path fill="#FFCC33" d="M99.364,67.384c-3,0.688-5.798,0.667-8.392-0.068c-2.595-0.731-4.69-2.146-6.287-4.237
			c-1.333-1.749-2.108-3.762-2.328-6.038c-0.215-2.275,0.119-4.592,1.004-6.951c0.889-2.358,2.285-4.563,4.191-6.616
			c1.306-1.486,2.063-2.308,2.271-2.465l2.229-2.515l0.229-0.339l0.052-0.039c1.13-1.295,1.857-2.651,2.188-4.07
			c0.328-1.417,0.192-2.52-0.409-3.309c-0.891-1.165-2.363-1.587-4.423-1.264c-2.061,0.323-3.966,1.152-5.715,2.486
			c-1.75,1.334-2.987,2.822-3.716,4.464c-0.728,1.642-0.936,3.021-0.625,4.14l-7.758,2.419c-0.929-2.925-0.733-5.992,0.59-9.199
			c1.324-3.209,3.512-5.977,6.564-8.305c2.47-1.883,5.094-3.139,7.869-3.767c2.779-0.626,5.381-0.592,7.811,0.104
			c2.431,0.696,4.391,2.021,5.882,3.976c1.23,1.613,1.952,3.463,2.162,5.553c0.212,2.091-0.075,4.221-0.858,6.394
			c-0.784,2.173-2.011,4.192-3.677,6.062c-0.23,0.338-1.064,1.272-2.501,2.802c-0.111,0.14-0.374,0.42-0.783,0.842
			c-0.411,0.422-0.87,0.937-1.384,1.544c-1.47,1.557-2.432,3.213-2.884,4.968c-0.45,1.755-0.284,3.146,0.5,4.176
			c0.575,0.754,1.506,1.241,2.782,1.458c1.279,0.218,2.719,0.097,4.318-0.366c1.603-0.461,3.156-1.269,4.665-2.42
			c2.128-1.623,3.591-3.471,4.394-5.549c0.762-1.774,0.888-3.282,0.377-4.519l7.637-2.898c0.769,2.073,0.97,4.292,0.605,6.66
			c-0.365,2.367-1.243,4.665-2.635,6.894c-1.394,2.228-3.202,4.193-5.433,5.894C105.202,65.328,102.366,66.692,99.364,67.384z"/>
	</g>
</g>
<g id="Layer_2">
	<path fill="#FFCC33" d="M98.854,83.104l1.786,5.774l-3.745,4.746c-0.671,0.85-0.073,2.105,1.013,2.121l6.04,0.086l3.355,5.029
		c0.605,0.908,1.983,0.713,2.327-0.306l1.951-5.722l5.82-1.637c1.033-0.289,1.306-1.652,0.43-2.309l-4.838-3.622l0.241-6.036
		c0.045-1.085-1.178-1.751-2.063-1.126l-4.943,3.479l-5.67-2.097C99.548,81.116,98.533,82.061,98.854,83.104L98.854,83.104z"/>
	<path fill="#FFCC33" d="M45.628,6.745l-3.483,4.978l-6.075-0.048c-1.088-0.008-1.716,1.241-1.059,2.113l3.654,4.847l-1.922,5.763
		c-0.348,1.04,0.657,2.013,1.677,1.658l5.744-1.979l4.886,3.611c0.867,0.642,2.117,0.018,2.098-1.083l-0.107-6.071l4.939-3.529
		c0.89-0.633,0.664-2.016-0.377-2.332l-5.809-1.778l-1.831-5.793C47.633,6.071,46.258,5.848,45.628,6.745L45.628,6.745z"/>
	<path fill="#FFCC33" d="M33.583,98.305l0.315,4.26l-3.329,2.674c-0.596,0.479-0.383,1.439,0.362,1.622l4.145,1.015l1.515,3.993
		c0.273,0.722,1.253,0.804,1.651,0.157l2.249-3.631l4.266-0.205c0.757-0.036,1.16-0.932,0.661-1.521l-2.758-3.26l1.121-4.117
		c0.203-0.74-0.535-1.393-1.242-1.103l-3.954,1.614l-3.572-2.341C34.375,97.047,33.527,97.537,33.583,98.305L33.583,98.305z"/>
</g>
</svg>
