<?xml version="1.0" encoding="utf-8"?>
<!-- Generator: Adobe Illustrator 15.1.0, SVG Export Plug-In . SVG Version: 6.00 Build 0)  -->
<!DOCTYPE svg PUBLIC "-//W3C//DTD SVG 1.1//EN" "http://www.w3.org/Graphics/SVG/1.1/DTD/svg11.dtd">
<svg version="1.1" xmlns="http://www.w3.org/2000/svg" xmlns:xlink="http://www.w3.org/1999/xlink" x="0px" y="0px"
	 width="410.327px" height="150.549px" viewBox="0 0 410.327 150.549" enable-background="new 0 0 410.327 150.549"
	 xml:space="preserve">
<g id="Layer_1">
	<path fill="#FDE68A" d="M35.806,27.772L51.48,76.414c10.18,31.589,42.884,46.147,49.548,43.999
		c6.665-2.146,24.717-33.062,14.537-64.65L99.893,7.121L35.806,27.772z"/>
	<polygon fill="#FDE68A" points="112.458,133.047 102.128,100.989 88.798,105.284 99.129,137.342 84.536,142.046 87.277,150.549 
		129.79,136.848 127.05,128.345 	"/>
	<g>
		<g>
			<path fill="#FFCC33" d="M26.905,106.405c-4.333-0.124-8.376-0.957-12.133-2.498c-3.758-1.541-6.934-3.633-9.524-6.275
				C2.655,94.991,0.906,92.023,0,88.729l12.198-3.252c0.475,2.014,1.992,3.793,4.549,5.331c2.88,1.884,6.386,2.885,10.518,3.003
				c2.932,0.084,5.612-0.306,8.037-1.171c2.426-0.864,4.342-2.01,5.75-3.438c1.407-1.426,2.133-2.873,2.175-4.339
				c0.057-1.999-0.989-3.896-3.139-5.692c-2.149-1.795-4.85-3.006-8.099-3.633c-1.192-0.3-2.236-0.53-3.132-0.69
				c-0.896-0.158-1.477-0.275-1.74-0.35c-3.184-0.625-5.072-1.046-5.667-1.263c-3.777-0.841-7.139-2.271-10.082-4.29
				c-2.944-2.018-5.226-4.435-6.845-7.249c-1.621-2.813-2.386-5.786-2.296-8.92c0.108-3.798,1.373-7.229,3.796-10.295
				c2.421-3.065,5.658-5.457,9.709-7.175c4.051-1.719,8.475-2.509,13.273-2.372c5.931,0.17,11.173,1.67,15.728,4.502
				c4.554,2.832,7.567,6.503,9.04,11.013L41.856,52.41c-0.619-1.684-2.125-3.228-4.52-4.632c-2.395-1.401-5.291-2.151-8.689-2.249
				c-3.398-0.097-6.536,0.581-9.412,2.032c-2.877,1.452-4.347,3.311-4.412,5.575c-0.044,1.534,0.779,3.042,2.472,4.523
				c1.691,1.483,3.83,2.527,6.413,3.135l0.1,0.003l0.594,0.217l5.069,1.146c0.4,0.011,2.09,0.36,5.072,1.045
				c4.243,0.856,7.986,2.364,11.226,4.523c3.24,2.161,5.749,4.767,7.529,7.818c1.78,3.053,2.622,6.277,2.525,9.677
				c-0.116,4.065-1.472,7.729-4.066,10.988c-2.594,3.261-6.086,5.813-10.473,7.653C36.896,105.707,32.104,106.554,26.905,106.405z"
				/>
		</g>
	</g>
	<g>
		<path fill="#FDE68A" d="M138.866,71.272c-4.637,1.064-8.961,1.031-12.971-0.104c-4.009-1.133-7.248-3.316-9.714-6.549
			c-2.063-2.704-3.261-5.814-3.598-9.332c-0.335-3.517,0.182-7.098,1.551-10.742c1.37-3.645,3.53-7.053,6.475-10.225
			c2.021-2.297,3.19-3.566,3.508-3.809l3.448-3.889l0.356-0.523l0.08-0.061c1.744-2.001,2.871-4.097,3.378-6.289
			c0.51-2.19,0.299-3.895-0.632-5.114c-1.375-1.802-3.653-2.452-6.836-1.953c-3.182,0.499-6.126,1.78-8.829,3.843
			c-2.703,2.063-4.616,4.361-5.743,6.898c-1.125,2.537-1.447,4.669-0.967,6.398l-11.99,3.739c-1.437-4.521-1.133-9.262,0.913-14.218
			c2.046-4.958,5.427-9.236,10.144-12.835c3.816-2.911,7.871-4.852,12.163-5.821c4.292-0.968,8.316-0.916,12.071,0.16
			c3.757,1.076,6.786,3.124,9.091,6.145c1.901,2.492,3.015,5.353,3.341,8.583c0.327,3.231-0.115,6.524-1.328,9.882
			c-1.212,3.357-3.106,6.479-5.683,9.367c-0.356,0.522-1.644,1.967-3.865,4.332c-0.17,0.215-0.574,0.648-1.209,1.301
			c-0.634,0.652-1.347,1.448-2.14,2.387c-2.272,2.406-3.759,4.965-4.457,7.678c-0.697,2.713-0.44,4.863,0.773,6.454
			c0.89,1.166,2.324,1.917,4.299,2.254c1.977,0.337,4.202,0.149,6.675-0.565c2.475-0.713,4.878-1.961,7.209-3.74
			c3.287-2.508,5.55-5.365,6.789-8.576c1.178-2.742,1.372-5.072,0.582-6.984l11.803-4.479c1.188,3.204,1.499,6.635,0.936,10.293
			c-0.562,3.657-1.92,7.209-4.072,10.654c-2.152,3.443-4.949,6.48-8.395,9.109C147.891,68.097,143.504,70.205,138.866,71.272z"/>
	</g>
</g>
<g id="Layer_3">
	<path fill="#FFCC33" d="M36.83,1.451l-3.515,3.608L28.35,4.21c-0.891-0.153-1.571,0.784-1.15,1.585l2.344,4.456L27.2,14.709
		c-0.424,0.806,0.268,1.737,1.15,1.583l4.965-0.852l3.517,3.607c0.624,0.641,1.729,0.297,1.86-0.604l0.724-4.984l4.515-2.228
		c0.813-0.4,0.812-1.559,0.002-1.958l-4.516-2.231l-0.725-4.985C38.561,1.167,37.464,0.801,36.83,1.451L36.83,1.451z"/>
	<path fill="#FFCC33" d="M149.618,113.084l-1.041,5.954l-5.496,2.519c-0.985,0.45-1.025,1.841-0.066,2.35l5.337,2.828l0.695,6.006
		c0.125,1.085,1.44,1.539,2.21,0.789l4.344-4.204l5.926,1.195c1.052,0.213,1.915-0.876,1.435-1.859l-2.657-5.429l2.966-5.263
		c0.535-0.946-0.251-2.096-1.323-1.942l-5.986,0.845l-4.092-4.45C151.142,111.631,149.807,112.009,149.618,113.084L149.618,113.084z
		"/>
	<path fill="#FFCC33" d="M262.54,68.741l-2.9,4.119l-5.037-0.054c-0.902-0.01-1.427,1.024-0.885,1.748l3.019,4.027l-1.608,4.775
		c-0.292,0.861,0.538,1.671,1.386,1.379l4.767-1.625l4.044,3.006c0.717,0.534,1.755,0.02,1.741-0.892l-0.074-5.036l4.105-2.913
		c0.739-0.523,0.556-1.668-0.307-1.934l-4.812-1.489l-1.504-4.809C264.204,68.187,263.063,67.998,262.54,68.741L262.54,68.741z"/>
	<path fill="#FFCC33" d="M181.617,29.223l-1.962,2.786l-3.408-0.037c-0.61-0.007-0.965,0.692-0.598,1.182l2.042,2.725l-1.088,3.23
		c-0.197,0.583,0.364,1.13,0.938,0.933l3.225-1.1l2.735,2.034c0.485,0.361,1.188,0.013,1.178-0.604l-0.05-3.407l2.777-1.971
		c0.5-0.354,0.376-1.128-0.208-1.308l-3.255-1.008l-1.018-3.253C182.743,28.848,181.971,28.72,181.617,29.223L181.617,29.223z"/>
	<path fill="#FFCC33" d="M360.331,52.958l1.122,2.403l-1.345,2.288c-0.242,0.41,0.094,0.919,0.565,0.863l2.631-0.324l1.76,1.985
		c0.316,0.359,0.904,0.191,0.993-0.272l0.506-2.602l2.434-1.06c0.432-0.188,0.469-0.796,0.049-1.029l-2.319-1.286l-0.255-2.639
		c-0.046-0.474-0.617-0.691-0.964-0.366l-1.941,1.807l-2.591-0.573C360.514,52.052,360.129,52.524,360.331,52.958L360.331,52.958z"
		/>
</g>
<g id="Layer_2">
	<g>
		<path d="M97.732,54.914c3.533,2.167,6.315,5.1,8.35,8.8c2.033,3.7,3.05,7.785,3.05,12.25v29.1h-12.6v-29.1c0-3.333-1-6.116-3-8.35
			c-2-2.232-4.5-3.35-7.5-3.35s-5.5,1.117-7.5,3.35c-2,2.234-3,5.018-3,8.35v29.1h-12.6v-70h12.6v19.2
			c3.333-1.733,6.833-2.6,10.5-2.6C90.297,51.664,94.198,52.748,97.732,54.914z"/>
		<path d="M142.131,105.963c-4.867,0-9.3-1.2-13.3-3.6c-4-2.4-7.167-5.666-9.5-9.8c-2.334-4.133-3.5-8.7-3.5-13.7
			s1.166-9.583,3.5-13.75c2.333-4.166,5.5-7.45,9.5-9.85c4-2.4,8.433-3.6,13.3-3.6c4.8,0,9.216,1.2,13.25,3.6
			c4.033,2.4,7.216,5.684,9.55,9.85c2.333,4.167,3.5,8.75,3.5,13.75s-1.167,9.567-3.5,13.7c-2.334,4.134-5.517,7.4-9.55,9.8
			C151.347,104.764,146.932,105.963,142.131,105.963z M142.131,64.264c-2.534,0-4.85,0.634-6.95,1.9
			c-2.1,1.267-3.75,3.017-4.95,5.25c-1.2,2.234-1.8,4.717-1.8,7.45c0,4.135,1.3,7.584,3.9,10.35c2.6,2.767,5.866,4.15,9.8,4.15
			c3.933,0,7.2-1.383,9.8-4.15c2.6-2.766,3.9-6.215,3.9-10.35c0-2.732-0.6-5.215-1.8-7.45c-1.2-2.233-2.85-3.983-4.95-5.25
			C146.981,64.898,144.665,64.264,142.131,64.264z"/>
		<path d="M214.729,55.264c4,2.4,7.166,5.684,9.5,9.85c2.334,4.167,3.5,8.75,3.5,13.75s-1.166,9.567-3.5,13.7
			c-2.334,4.134-5.5,7.4-9.5,9.8c-4,2.4-8.434,3.6-13.299,3.6c-5,0-9.567-1.3-13.7-3.9v20.5h-12.6v-70h12.6v3
			c4.133-2.6,8.7-3.9,13.7-3.9C206.296,51.664,210.73,52.863,214.729,55.264z M208.38,91.463c2.1-1.266,3.75-3.016,4.95-5.25
			c1.2-2.233,1.8-4.683,1.8-7.35c0-2.732-0.6-5.215-1.8-7.45c-1.2-2.233-2.85-3.983-4.95-5.25c-2.1-1.266-4.417-1.9-6.95-1.9
			c-2.534,0-4.85,0.634-6.95,1.9c-2.1,1.267-3.75,3.017-4.95,5.25c-1.2,2.234-1.8,4.717-1.8,7.45c0,2.667,0.6,5.117,1.8,7.35
			c1.2,2.234,2.85,3.984,4.95,5.25c2.1,1.267,4.416,1.9,6.95,1.9C203.963,93.363,206.28,92.73,208.38,91.463z"/>
		<path d="M273.229,55.264c4,2.4,7.166,5.684,9.5,9.85c2.333,4.167,3.5,8.75,3.5,13.75s-1.167,9.567-3.5,13.7
			c-2.334,4.134-5.5,7.4-9.5,9.8c-4,2.4-8.434,3.6-13.3,3.6c-5,0-9.567-1.3-13.7-3.9v20.5h-12.6v-70h12.6v3
			c4.133-2.6,8.7-3.9,13.7-3.9C264.796,51.664,269.229,52.863,273.229,55.264z M266.88,91.463c2.1-1.266,3.75-3.016,4.949-5.25
			c1.201-2.233,1.801-4.683,1.801-7.35c0-2.732-0.6-5.215-1.801-7.45c-1.199-2.233-2.85-3.983-4.949-5.25
			c-2.1-1.266-4.418-1.9-6.95-1.9c-2.534,0-4.851,0.634-6.95,1.9c-2.1,1.267-3.75,3.017-4.949,5.25
			c-1.201,2.234-1.801,4.717-1.801,7.45c0,2.667,0.6,5.117,1.801,7.35c1.199,2.234,2.85,3.984,4.949,5.25
			c2.1,1.267,4.416,1.9,6.95,1.9C262.462,93.363,264.78,92.73,266.88,91.463z"/>
		<path d="M293.179,46.113c-1.367-1.365-2.049-3.016-2.049-4.95c0-1.933,0.682-3.583,2.049-4.95c1.366-1.366,3.016-2.05,4.951-2.05
			c1.932,0,3.582,0.684,4.949,2.05c1.365,1.367,2.051,3.017,2.051,4.95c0,1.934-0.686,3.584-2.051,4.95
			c-1.367,1.367-3.018,2.05-4.949,2.05C296.194,48.164,294.545,47.48,293.179,46.113z M291.829,52.563h12.6v52.5h-12.6V52.563z"/>
		<path d="M338.229,105.963c-4.867,0-9.317-1.2-13.351-3.6c-4.033-2.4-7.217-5.666-9.549-9.8c-2.335-4.133-3.5-8.7-3.5-13.7
			c0-5.065,1.115-9.683,3.35-13.85c2.232-4.166,5.3-7.433,9.199-9.8c3.9-2.366,8.25-3.55,13.051-3.55c4.8,0,9.15,1.184,13.05,3.55
			c3.899,2.367,6.966,5.634,9.2,9.8c2.232,4.167,3.35,8.784,3.35,13.85v6.3h-37.3c1.065,2.467,2.716,4.45,4.95,5.95
			c2.232,1.5,4.75,2.25,7.55,2.25c1.933,0,3.766-0.383,5.5-1.15c1.733-0.766,3.233-1.85,4.5-3.25l9.399,8.4
			c-2.467,2.734-5.384,4.85-8.75,6.35C345.511,105.213,341.962,105.963,338.229,105.963z M325.528,72.563h23.7
			c-1-2.466-2.484-4.466-4.45-6c-1.967-1.533-4.417-2.3-7.35-2.3c-2.935,0-5.4,0.767-7.4,2.3
			C328.028,68.098,326.528,70.098,325.528,72.563z"/>
		<path d="M388.628,105.963c-5.067,0-9.567-1.2-13.5-3.6c-3.935-2.4-6.467-5.5-7.6-9.3l12-3.7c0.332,1,1.35,1.917,3.049,2.75
			c1.701,0.834,3.717,1.25,6.051,1.25c1.732,0,3.3-0.25,4.699-0.75c1.4-0.5,2.483-1.1,3.25-1.8c0.766-0.7,1.15-1.315,1.15-1.85
			c0-0.733-0.6-1.533-1.8-2.4c-1.2-0.866-2.767-1.466-4.7-1.8l-3.4-0.6l-4.1-0.8c-4.534-0.865-8.234-2.75-11.1-5.65
			c-2.867-2.9-4.301-6.215-4.301-9.95c0-2.933,0.9-5.633,2.701-8.1c1.799-2.466,4.25-4.416,7.35-5.85
			c3.1-1.433,6.516-2.15,10.25-2.15c4.533,0,8.582,1.05,12.15,3.15c3.564,2.1,5.982,4.85,7.25,8.25l-11.801,4.4
			c-0.268-0.733-1.117-1.45-2.55-2.15c-1.435-0.7-3.117-1.05-5.05-1.05c-1.467,0-2.785,0.217-3.95,0.65
			c-1.167,0.434-2.085,0.917-2.75,1.45c-0.667,0.535-1,1-1,1.4c0,0.467,0.433,1.017,1.3,1.65c0.865,0.634,2,1.117,3.4,1.45
			l0.699,0.2c0.201,0.067,0.616,0.15,1.25,0.25c0.633,0.1,1.351,0.217,2.15,0.35l3.7,0.6c5,0.934,9.065,2.934,12.2,6
			c3.133,3.067,4.699,6.634,4.699,10.7c0,3.134-0.967,6-2.899,8.6c-1.935,2.6-4.55,4.65-7.851,6.15
			c-3.299,1.5-4.981,1.746-4.981,1.746S392.628,105.963,388.628,105.963z"/>
	</g>
	<g>
		<path d="M108.141,20.846h-8.964V41.51h-4.536V20.846h-9V16.31h22.5V20.846z"/>
		<path d="M123.513,23.456c1.272,0.78,2.274,1.836,3.006,3.168c0.732,1.332,1.098,2.803,1.098,4.41V41.51h-4.536V31.034
			c0-1.2-0.36-2.202-1.08-3.006c-0.72-0.804-1.62-1.206-2.7-1.206s-1.98,0.402-2.7,1.206c-0.72,0.804-1.08,1.806-1.08,3.006V41.51
			h-4.536v-25.2h4.536v6.912c1.2-0.624,2.459-0.936,3.78-0.936C120.836,22.286,122.24,22.676,123.513,23.456z"/>
		<path d="M139.532,41.834c-1.752,0-3.354-0.432-4.806-1.296c-1.453-0.864-2.598-2.04-3.438-3.528
			c-0.84-1.488-1.26-3.132-1.26-4.932c0-1.824,0.402-3.486,1.206-4.986c0.804-1.5,1.908-2.676,3.312-3.528s2.97-1.278,4.698-1.278
			c1.728,0,3.294,0.426,4.698,1.278s2.508,2.028,3.312,3.528c0.804,1.5,1.206,3.162,1.206,4.986v2.268h-13.428
			c0.384,0.888,0.978,1.602,1.782,2.142c0.804,0.54,1.71,0.81,2.718,0.81c0.696,0,1.356-0.138,1.98-0.414
			c0.624-0.276,1.164-0.666,1.62-1.17l3.384,3.024c-0.888,0.984-1.938,1.746-3.15,2.286S140.876,41.834,139.532,41.834z
			 M134.96,29.81h8.532c-0.36-0.887-0.894-1.607-1.602-2.16c-0.708-0.552-1.59-0.828-2.646-0.828s-1.944,0.276-2.664,0.828
			C135.86,28.202,135.32,28.922,134.96,29.81z"/>
	</g>
</g>
</svg>
